    <svg xmlns="http://www.w3.org/2000/svg" version="1.1" xlink="http://www.w3.org/1999/xlink" xmlns:svgjs="http://svgjs.com/svgjs" width="40%" height="40%" viewBox="10.021989822387695 2.9099979400634766 43.958038330078125 58.1820068359375"><g stroke="#000" stroke-width="1.5"><g fill="#fff"><path d="M52.38 28.858a8.098 8.098 0 0 0-3.358-6.596 8.133 8.133 0 0 0-1.236-4.225c.018-.074.045-.145.045-.225v-9.55c0-2.951-2.291-5.352-5.106-5.352s-5.105 2.4-5.105 5.352v6.23a8.161 8.161 0 0 0-11.238 0v-6.23c0-2.951-2.291-5.352-5.106-5.352s-5.106 2.4-5.106 5.352v9.552c0 .08.028.15.045.226a8.111 8.111 0 0 0-1.236 4.223 8.093 8.093 0 0 0-3.36 6.597c0 .911.155 1.795.445 2.638a19.74 19.74 0 0 0-2.042 8.764c0 11.485 9.859 20.83 21.979 20.83s21.979-9.345 21.979-20.83a19.69 19.69 0 0 0-2.042-8.766 8.123 8.123 0 0 0 .442-2.638zM42.724 4.91c1.713 0 3.106 1.504 3.106 3.352v7.611a8.134 8.134 0 0 0-4.988-1.711 8.26 8.26 0 0 0-1.224.098V8.262c0-1.848 1.394-3.352 3.106-3.352zm-21.448 0c1.713 0 3.106 1.504 3.106 3.352v5.998a8.247 8.247 0 0 0-1.223-.098 8.135 8.135 0 0 0-4.989 1.711V8.262c0-1.848 1.393-3.352 3.106-3.352zM16.53 23.629a1 1 0 0 0 .46-1.014c-.015-.095-.011-.181-.011-.273a6.187 6.187 0 0 1 6.181-6.18c.987 0 1.921.223 2.777.662a1 1 0 0 0 1.234-.261 6.192 6.192 0 0 1 4.83-2.313c1.88 0 3.64.843 4.829 2.313a1 1 0 0 0 1.234.261 6.023 6.023 0 0 1 2.778-.662 6.187 6.187 0 0 1 6.18 6.18c0 .092.004.177-.012.271-.067.4.114.802.46 1.017a6.113 6.113 0 0 1 2.91 5.229c0 .811-.151 1.59-.449 2.318l-.001.002c-.959 2.353-3.208 3.873-5.729 3.873a6.087 6.087 0 0 1-5.24-2.929.997.997 0 0 0-.849-.479c-.354-.031-.671.177-.854.472-1.145 1.839-3.109 2.937-5.258 2.937a6.119 6.119 0 0 1-5.242-2.933.999.999 0 0 0-1.702 0 6.137 6.137 0 0 1-5.256 2.933 6.173 6.173 0 0 1-5.729-3.873l-.001-.002a6.08 6.08 0 0 1-.45-2.318 6.11 6.11 0 0 1 2.91-5.231zm24.238 12.957a12.73 12.73 0 0 1 .956 4.893c0 6.235-4.362 11.309-9.724 11.309s-9.724-5.073-9.724-11.309c0-1.811.358-3.542 1.064-5.147.014-.031.011-.064.021-.097a8.08 8.08 0 0 0 2.545-1.918A8.093 8.093 0 0 0 32 37.052a8.131 8.131 0 0 0 6.101-2.735 8.027 8.027 0 0 0 2.605 1.954.974.974 0 0 0 .062.315zM32 59.09c-11.016 0-19.979-8.447-19.979-18.83 0-2.249.41-4.429 1.222-6.503a8.144 8.144 0 0 0 6.556 3.295c.396 0 .784-.038 1.168-.093a14.848 14.848 0 0 0-.692 4.52c0 7.339 5.259 13.309 11.724 13.309s11.724-5.97 11.724-13.309a14.83 14.83 0 0 0-.703-4.521c.388.056.779.094 1.18.094a8.143 8.143 0 0 0 6.558-3.298 17.705 17.705 0 0 1 1.221 6.506c0 10.383-8.962 18.83-19.979 18.83zm2.63-17.394c.187.691.03 2.106-1.619 3.009v3.475a1 1 0 1 1-2 0v-3.465c-1.665-.901-1.828-2.322-1.643-3.016a1 1 0 0 1 .966-.743h3.33c.452 0 .848.304.966.74zm13.847-2.413c0 1.038-.709 1.877-1.582 1.877-.874 0-1.582-.839-1.582-1.877 0-1.04.708-1.878 1.582-1.878.873 0 1.582.838 1.582 1.878zm-29.789 0c0 1.038-.708 1.877-1.583 1.877-.873 0-1.581-.839-1.581-1.877 0-1.04.708-1.878 1.581-1.878.874 0 1.583.838 1.583 1.878z"></path></g></g></svg>
